<svg id="Camada_1" data-name="Camada 1" xmlns="http://www.w3.org/2000/svg" viewBox="0 0 60.49 53.92"><defs><style>.cls-1{fill:#fff;}</style></defs><path class="cls-1" d="M833.6,3456l-37.05-7.84a2.92,2.92,0,0,0-3.45,2.25l-.7,4.52,42.75,9,.7-4.52A2.93,2.93,0,0,0,833.6,3456Z" transform="translate(-775.42 -3448.05)"/><path class="cls-1" d="M818,3464.89a3,3,0,0,0-3.62-2l-7,2-16.58-3.51L789,3469.9l-11.4,3.16a3,3,0,0,0-2,3.62l6.42,23.14a3,3,0,0,0,3.62,2l36.83-10.22a3,3,0,0,0,2-3.62l-1.1-4,4.13.88a2.92,2.92,0,0,0,3.45-2.25l2.62-12.35-14.88-3.15Zm4.26,11.76.91-4.31a1.19,1.19,0,0,1,1.42-.92l4.3.91a1.21,1.21,0,0,1,.93,1.42l-.91,4.31a1.2,1.2,0,0,1-1.42.92l-4.31-.91A1.2,1.2,0,0,1,822.28,3476.65Zm-44.07-1.28,10.2-2.82,24.05-6.68,2.58-.72.14,0a.56.56,0,0,1,.53.4l.31,1.1,1,3.43-37.88,10.51-1.25-4.53A.55.55,0,0,1,778.21,3475.37Zm43.92,13.3a.54.54,0,0,1,0,.41.54.54,0,0,1-.32.26l-36.83,10.22-.14,0a.56.56,0,0,1-.53-.4l-3.75-13.5,37.88-10.51,2.31,8.33Z" transform="translate(-775.42 -3448.05)"/><path class="cls-1" d="M790.88,3489.59a1.2,1.2,0,0,0-1.48-.83l-4.3,1.19a1.21,1.21,0,0,0-.83,1.48l1.19,4.3a1.21,1.21,0,0,0,1.48.83l4.3-1.19a1.21,1.21,0,0,0,.83-1.48Z" transform="translate(-775.42 -3448.05)"/></svg>