<svg id="Camada_1" data-name="Camada 1" xmlns="http://www.w3.org/2000/svg" viewBox="0 0 38.6 47.16"><defs><style>.cls-1{fill:#fff;}</style></defs><path class="cls-1" d="M1230.83,3461.21a1.69,1.69,0,0,0-1.17-.48,1.63,1.63,0,0,0-1.16.48l-5.76,5.77-2-2a1.65,1.65,0,0,0-1.17-.48,1.64,1.64,0,0,0-1.64,1.64,1.65,1.65,0,0,0,.48,1.17l3.15,3.15a1.63,1.63,0,0,0,1.17.48h0a1.63,1.63,0,0,0,1.16-.48l6.93-6.93A1.65,1.65,0,0,0,1230.83,3461.21Z" transform="translate(-1205.31 -3443.44)"/><path class="cls-1" d="M1243.83,3453.16a.84.84,0,0,0-.47-.7l-18.37-8.93a.83.83,0,0,0-.75,0l-18.37,8.93a.87.87,0,0,0-.48.7,47.39,47.39,0,0,0,1.48,14.53,38.69,38.69,0,0,0,5.47,12.32,32.24,32.24,0,0,0,11.88,10.5.89.89,0,0,0,.39.09.93.93,0,0,0,.4-.09,32.28,32.28,0,0,0,11.87-10.5,38.69,38.69,0,0,0,5.47-12.32A47,47,0,0,0,1243.83,3453.16Zm-19.22,23.43a10.89,10.89,0,1,1,10.89-10.89A10.9,10.9,0,0,1,1224.61,3476.59Z" transform="translate(-1205.31 -3443.44)"/></svg>