<svg id="Camada_1" data-name="Camada 1" xmlns="http://www.w3.org/2000/svg" viewBox="0 0 58.08 34.37"><defs><style>.cls-1{fill:#fff;fill-rule:evenodd;}</style></defs><path class="cls-1" d="M424.24,3456.74c5,1.17,7,4.11,9.37,8.16h-9.37Zm-29.43,8.5a1.49,1.49,0,0,1,1.7,1.59,1.7,1.7,0,0,1-1.7,1.7H384.53a1.71,1.71,0,0,0,0,3.41h15.32a1.7,1.7,0,1,1,0,3.4H384.53a1.7,1.7,0,0,0,0,3.4h3.75v5.11a1.7,1.7,0,0,0,1.7,1.7h3.42a6.52,6.52,0,0,0,12.78,0h17.28a6.52,6.52,0,0,0,12.78,0h3a1.7,1.7,0,0,0,1.7-1.7v-10.21c0-5-5.26-5.33-5.27-5.33h-13.1a1.72,1.72,0,0,1-1.71-1.71v-10.2H390a1.7,1.7,0,0,0-1.7,1.7v3.74h-2a1.7,1.7,0,1,0,0,3.4Zm37.25,16.8a3.12,3.12,0,1,1-5.33,2.2A3.11,3.11,0,0,1,432.06,3482ZM402,3482a3.12,3.12,0,1,1-5.33,2.2A3.11,3.11,0,0,1,402,3482Z" transform="translate(-382.83 -3456.4)"/></svg>