<svg id="Camada_1" data-name="Camada 1" xmlns="http://www.w3.org/2000/svg" viewBox="0 0 49.08 49.08"><defs><style>.cls-1{fill:#fff;}</style></defs><path class="cls-1" d="M827.34,3485.86a7.16,7.16,0,0,1-5.09-2.11l-7.37-7.36a1.39,1.39,0,0,0-1.93,0l-7.39,7.39a7.16,7.16,0,0,1-5.1,2.11H799l9.33,9.32a7.45,7.45,0,0,0,10.54,0l9.35-9.35Zm-26.88-26a7.16,7.16,0,0,1,5.1,2.11l7.39,7.39a1.36,1.36,0,0,0,1.93,0l7.37-7.36a7.16,7.16,0,0,1,5.09-2.11h.89l-9.35-9.35a7.45,7.45,0,0,0-10.54,0l-9.33,9.32Z" transform="translate(-789.07 -3448.32)"/><path class="cls-1" d="M836,3467.58l-5.65-5.65a1.06,1.06,0,0,1-.4.08h-2.57a5.08,5.08,0,0,0-3.56,1.48l-7.36,7.36a3.52,3.52,0,0,1-5,0l-7.39-7.39a5.07,5.07,0,0,0-3.57-1.47h-3.15a1.12,1.12,0,0,1-.38-.08l-5.68,5.67a7.47,7.47,0,0,0,0,10.55l5.68,5.67a.92.92,0,0,1,.38-.08h3.15a5.12,5.12,0,0,0,3.57-1.47l7.39-7.39a3.61,3.61,0,0,1,5,0l7.36,7.36a5.08,5.08,0,0,0,3.56,1.48h2.57a1.06,1.06,0,0,1,.4.08l5.65-5.65A7.45,7.45,0,0,0,836,3467.58Z" transform="translate(-789.07 -3448.32)"/></svg>